# xmcd
#
# Track frame offsets: 
#        150
#        28689
#        44397
#        61738
#        87720
#        105582
#        128452
#        146489
#        163133
#
# Disc length: 2367 seconds
#
# Revision: 2
# Processed by: cddbd v1.5.2PL0 Copyright (c) Steve Scherf et al.
# Submitted via: ExactAudioCopy v0.99pb4
#
DISCID=74093d09
DTITLE=Little Milton - Walkin' The Back Streets
DYEAR=1981
DGENRE=Blues
TTITLE0=Walking The Back Streets And Crying
TTITLE1=Before The Honeymoon
TTITLE2=Somebody's Tears
TTITLE3=Blue Monday
TTITLE4=Married Woman
TTITLE5=Eight Men And Four Women
TTITLE6=Open The Door To Your Heart
TTITLE7=Letter Full Of Tears
TTITLE8=Bet You I'll Win
EXTD=Little Milton  'Walkin' The Back Streets'\nRecorded in 1972 and 1
EXTD=974 in Memphis\n© 2002\nLabel: Fantasy, Inc. - Stax Records\nSCD2
EXTD=4 8514-2\n24 BIT Remastered
EXTT0=
EXTT1=
EXTT2=
EXTT3=
EXTT4=
EXTT5=
EXTT6=
EXTT7=
EXTT8=
PLAYORDER=
